<svg width="18" height="16" viewBox="0 0 18 16" fill="none" xmlns="http://www.w3.org/2000/svg">
<path d="M12.0152 9.59319C12.0152 8.00019 11.0552 7.45419 9.1352 7.22619C7.7642 7.04394 7.49045 6.68019 7.49045 6.04269C7.49045 5.40519 7.94795 4.99569 8.86145 4.99569C9.6842 4.99569 10.1417 5.26869 10.3697 5.95194C10.3936 6.01789 10.4371 6.07497 10.4943 6.11557C10.5516 6.15617 10.6198 6.17837 10.6899 6.17919H11.4212C11.4634 6.18031 11.5055 6.17285 11.5447 6.15725C11.584 6.14165 11.6197 6.11824 11.6496 6.08843C11.6796 6.05863 11.7032 6.02305 11.7189 5.98386C11.7347 5.94467 11.7424 5.90268 11.7414 5.86044V5.81544C11.6521 5.32111 11.402 4.87014 11.03 4.53257C10.6579 4.19501 10.1849 3.98975 9.6842 3.94869V2.85669C9.6842 2.67444 9.54695 2.53794 9.31895 2.49219H8.6327C8.45045 2.49219 8.3132 2.62869 8.26745 2.85669V3.90369C6.8957 4.08519 6.02795 4.99569 6.02795 6.13419C6.02795 7.63569 6.94145 8.22744 8.86145 8.45544C10.1417 8.68269 10.5527 8.95644 10.5527 9.68469C10.5527 10.4122 9.91295 10.9132 9.04445 10.9132C7.8557 10.9132 7.4447 10.4129 7.30745 9.72969C7.26245 9.54819 7.12445 9.45669 6.9872 9.45669H6.2102C6.16803 9.45566 6.12608 9.4632 6.08691 9.47885C6.04773 9.4945 6.01213 9.51792 5.98227 9.54772C5.9524 9.57751 5.92889 9.61306 5.91315 9.6522C5.89741 9.69134 5.88977 9.73326 5.8907 9.77544V9.82044C6.07295 10.9589 6.80495 11.7779 8.3132 12.0059V13.0987C8.3132 13.2802 8.45045 13.4174 8.67845 13.4624H9.3647C9.54695 13.4624 9.6842 13.3259 9.72995 13.0987V12.0052C11.1017 11.7779 12.0152 10.8217 12.0152 9.59244V9.59319Z" fill="white"/>
<path d="M6.66848 14.3727C3.10298 13.0977 1.27448 9.13775 2.60048 5.633C3.28598 3.7205 4.79423 2.26475 6.66848 1.5815C6.85148 1.49075 6.94223 1.35425 6.94223 1.12625V0.48875C6.94223 0.30725 6.85148 0.17075 6.66848 0.125C6.62273 0.125 6.53123 0.125 6.48548 0.17C5.4568 0.491243 4.50183 1.0128 3.67555 1.70463C2.84927 2.39646 2.168 3.24491 1.67097 4.20112C1.17394 5.15733 0.870961 6.20241 0.779489 7.27619C0.688016 8.34998 0.809853 9.43125 1.13798 10.4578C1.95998 13.0078 3.92573 14.9653 6.48548 15.7843C6.66848 15.875 6.85148 15.7842 6.89648 15.602C6.94223 15.557 6.94223 15.5105 6.94223 15.4198V14.7822C6.94223 14.6457 6.80573 14.4642 6.66848 14.3727ZM11.5135 0.17075C11.3305 0.0792499 11.1475 0.17075 11.1025 0.35225C11.0567 0.398 11.0567 0.44375 11.0567 0.5345V1.172C11.0567 1.35425 11.1932 1.53575 11.3305 1.62725C14.896 2.90225 16.7245 6.86225 15.3985 10.367C14.713 12.2795 13.2047 13.7353 11.3305 14.4185C11.1475 14.5093 11.0567 14.6458 11.0567 14.8738V15.5112C11.0567 15.6927 11.1475 15.8293 11.3305 15.875C11.3762 15.875 11.4677 15.875 11.5135 15.83C12.5422 15.5088 13.4971 14.9872 14.3234 14.2954C15.1497 13.6035 15.831 12.7551 16.328 11.7989C16.825 10.8427 17.128 9.79759 17.2195 8.72381C17.3109 7.65002 17.1891 6.56875 16.861 5.54225C16.039 2.94725 14.0275 0.98975 11.5135 0.17075Z" fill="white"/>
</svg>
