<svg width="32" height="32" viewBox="0 0 32 32" fill="none" xmlns="http://www.w3.org/2000/svg">
<path d="M27.7707 10.6774L19.0373 3.69075C17.3307 2.33075 14.664 2.31742 12.9707 3.67742L4.23735 10.6774C2.98401 11.6774 2.22401 13.6774 2.49068 15.2508L4.17068 25.3041C4.55735 27.5574 6.65068 29.3308 8.93068 29.3308H23.064C25.3173 29.3308 27.4507 27.5174 27.8373 25.2908L29.5173 15.2374C29.7573 13.6774 28.9973 11.6774 27.7707 10.6774Z" fill="#115EBF"/>
<path d="M16 25C15.4533 25 15 24.5467 15 24V20C15 19.4533 15.4533 19 16 19C16.5467 19 17 19.4533 17 20V24C17 24.5467 16.5467 25 16 25Z" fill="white"/>
</svg>
